<?xml version="1.0" standalone="no"?>
<!DOCTYPE svg PUBLIC "-//W3C//DTD SVG 1.1//EN" "http://www.w3.org/Graphics/SVG/1.1/DTD/svg11.dtd" >
<svg xmlns="http://www.w3.org/2000/svg">
<metadata>
Created by FontPrep 20130207 at Tue Feb  3 01:58:43 2015
 By Kyle Beard
Copyright (c) 2013 by Absolut Foundry. All rights reserved.
</metadata>
<defs>
<font id="3b03e6b824a93af237867d68dcecdeb9" horiz-adv-x='1024' >
  <font-face 
    font-family="Mohave"
    font-weight="400"
    font-stretch="normal"
    units-per-em="2048"
    panose-1="0 0 0 0 0 0 0 0 0 0"
    ascent="1845"
    descent="-203"
    x-height="1673"
    cap-height="1673"
    bbox="-74 -514 1712 2073"
    underline-thickness="102"
    underline-position="-100"
    unicode-range="U+0020-2212"
  />
<missing-glyph horiz-adv-x="804" 
d="M604 1538h-409v-1434h409v1434zM707 1640v-1638h-613l-2 1638h615z" />
    <glyph glyph-name=".notdef" horiz-adv-x="804" 
d="M604 1538h-409v-1434h409v1434zM707 1640v-1638h-613l-2 1638h615z" />
    <glyph glyph-name=".null" horiz-adv-x="0" 
 />
    <glyph glyph-name="nonmarkingreturn" horiz-adv-x="681" 
 />
    <glyph glyph-name="space" unicode=" " horiz-adv-x="409" 
 />
    <glyph glyph-name="exclam" unicode="!" horiz-adv-x="376" 
d="M272 1673l-28 -1339h-115l-29 1339h172zM264 176v-176h-153v176h153z" />
    <glyph glyph-name="quotedbl" unicode="&#x22;" horiz-adv-x="714" 
d="M408 1440v233h176v-233l-66 -135h-76l66 135h-100zM127 1440v233h176v-233l-65 -135h-76l65 135h-100z" />
    <glyph glyph-name="numbersign" unicode="#" horiz-adv-x="1085" 
d="M1020 1104v-135h-133l-62 -377h150v-135h-184l-80 -457h-138l76 457h-348l-78 -457h-135l74 457h-111l-2 135h148q10 72 30 188t31 189h-160v135h197l104 569h140l-105 -569h348q37 214 105 569h141l-104 -569h96zM745 969l-348 -2l-59 -375h348q29 176 59 377z" />
    <glyph glyph-name="dollar" unicode="$" horiz-adv-x="837" 
d="M475 -150h-117v111q-129 35 -212 130t-83 212l-2 164h136v-164q0 -51 45 -101t116 -83v645q-129 28 -213 106t-84 179v268q0 119 83 213t214 127v108h117v-108q133 -31 215 -125t82 -215v-170h-135v170q0 127 -162 186v-657q125 -31 211 -108t86 -173v-262
q0 -119 -83 -213t-214 -129v-111zM199 1317v-268q0 -100 159 -154v606q-74 -31 -116 -80t-43 -104zM635 303v262q0 98 -160 156v-602q66 33 113 84t47 100z" />
    <glyph glyph-name="percent" unicode="%" horiz-adv-x="1183" 
d="M997 156v370q0 37 -30 67q-31 30 -73 30t-71 -27t-28 -70v-370q1 -43 29 -70t72 -27t73 29q28 29 28 68zM896 -51q-87 0 -150 59q-62 59 -62 148v370q0 88 61 148t149 59q88 0 152 -60q62 -60 62 -147v-370q0 -86 -62 -147q-63 -60 -150 -60zM377 1036v369q0 41 -33 70
t-73 29q-41 0 -69 -28t-28 -71v-369q0 -42 29 -70t71 -28t72 28q31 28 31 70zM487 1036q-1 -88 -63 -148t-149 -59q-87 -1 -150 59t-64 148v369q0 86 65 146q66 61 150 61t148 -60t63 -147v-369zM221 -51l629 1724h119l-629 -1724h-119z" />
    <glyph glyph-name="ampersand" unicode="&#x26;" horiz-adv-x="1083" 
d="M705 324v448h-213q-92 0 -152 -51t-61 -131v-266q0 -88 60 -144q61 -56 153 -57q92 1 152 57t61 144zM492 905h213v154h159v-154h129v-133h-129v-448q0 -150 -112 -253t-260 -103q-146 0 -258 102t-113 254v266q0 137 121 252q-121 131 -121 248v266q0 150 111 253
q112 103 263 103t257 -121t112 -313h-159q-11 129 -67 204q-56 74 -147 74t-151 -56t-61 -144v-266q7 -74 75 -130t138 -55z" />
    <glyph glyph-name="quotesingle" unicode="'" horiz-adv-x="436" 
d="M129 1440v233h176v-233l-65 -135h-76l65 135h-100z" />
    <glyph glyph-name="parenleft" unicode="(" horiz-adv-x="745" 
d="M489 1845h134v-143q-250 0 -313 -85q-28 -38 -27 -95v-1327q-1 -154 67 -202t273 -50v-144h-134q-156 0 -259 81t-105 239v1403q0 160 103 242t261 81z" />
    <glyph glyph-name="parenright" unicode=")" horiz-adv-x="745" 
d="M125 1845h133q158 0 261 -82t104 -241v-1403q1 -158 -103 -239t-262 -81h-131v144q203 2 271 50t67 202v1327q0 115 -109 150q-94 30 -231 30v143z" />
    <glyph glyph-name="asterisk" unicode="*" horiz-adv-x="604" 
d="M346 1223h-94l2 153q-45 -28 -111 -65l-53 67l107 68l-107 72l53 65l109 -70v158h94l-2 -158l113 70q33 -33 53 -63l-111 -74q42 -24 111 -70q-27 -31 -53 -67l-111 67v-153z" />
    <glyph glyph-name="plus" unicode="+" horiz-adv-x="835" 
d="M803 868v-116h-328v-330h-117v330h-329v116h329v326h117v-326h328z" />
    <glyph glyph-name="comma" unicode="," horiz-adv-x="333" 
d="M250 209v-186l-156 -121v307h156z" />
    <glyph glyph-name="hyphen" unicode="-" horiz-adv-x="831" 
d="M711 752h-596v116h596v-116z" />
    <glyph glyph-name="period" unicode="." horiz-adv-x="393" 
d="M268 209v-209h-155v209h155z" />
    <glyph glyph-name="slash" unicode="/" horiz-adv-x="856" 
d="M799 1698l-629 -1725h-117l625 1725h121z" />
    <glyph glyph-name="zero" unicode="0" horiz-adv-x="1030" 
d="M510 113q115 -1 198 77t83 191v999l-467 -1177q71 -90 186 -90zM510 1542q-108 0 -193 -78q-84 -78 -84 -190v-985l469 1175q-84 78 -192 78zM514 -18q-168 0 -290 116t-124 283v893q0 168 123 284t291 116t290 -116t122 -284v-893q0 -167 -122 -283t-290 -116z" />
    <glyph glyph-name="one" unicode="1" horiz-adv-x="567" 
d="M63 1456h68q179 0 214 31q19 16 20 43v143h135v-1673h-135v1352q-72 -13 -148 -13l-154 2v115z" />
    <glyph glyph-name="two" unicode="2" horiz-adv-x="933" 
d="M846 133v-133h-701l-2 145q-1 186 53 299t214 207q218 152 249 243q23 66 23 130l-4 305q-2 87 -67 149t-149 62t-152 -64q-66 -65 -66 -147v-264h-135v264q0 143 104 243q103 100 247 101q144 0 248 -102t105 -242l2 -299q0 -187 -96 -295q-49 -55 -88 -86t-109 -76
q-118 -87 -188 -201t-45 -239h557z" />
    <glyph glyph-name="three" unicode="3" horiz-adv-x="913" 
d="M332 793v112h132q95 -1 113 9q19 10 41 21q60 29 60 126v266q0 91 -64 151t-156 60q-93 0 -160 -60t-67 -151v-262h-139v262q0 145 109 245t255 101q146 0 252 -99t107 -247v-266q0 -87 -57 -147q-20 -22 -72 -66q129 -100 129 -248v-266q0 -146 -106 -246
q-107 -100 -253 -100t-254 100t-110 246v260h139v-260q0 -92 68 -152t160 -59q92 0 155 59t64 152v266q0 57 -18 98q-17 40 -45 58q-62 39 -110 37t-75 0h-98z" />
    <glyph glyph-name="four" unicode="4" horiz-adv-x="929" 
d="M633 457v1030q-393 -870 -463 -1030h463zM768 342v-342h-135v342h-590v117l543 1214h182v-1216h115v-115h-115z" />
    <glyph glyph-name="five" unicode="5" horiz-adv-x="1011" 
d="M509 1135q165 0 285 -120t119 -290v-330q1 -170 -119 -290q-120 -119 -291 -119t-290 118t-121 291v113h133v-113q0 -111 84 -193t195 -81q110 0 192 82t82 192v330q0 111 -82 194t-192 83t-191 -90q-82 -89 -90 -218h-131v979h821v-135h-688v-522q119 119 284 119z" />
    <glyph glyph-name="six" unicode="6" horiz-adv-x="1024" 
d="M510 967q-113 0 -195 -76t-82 -191v-319q0 -117 82 -193t195 -76t196 78q83 76 82 191v319q0 113 -82 190q-83 77 -196 77zM518 1100q158 0 282 -117t124 -283v-319q0 -168 -123 -284q-123 -115 -290 -115t-290 116t-125 283v893q0 168 123 284t291 116t291 -116
t123 -284v-94h-136v94q0 116 -82 192t-196 76q-113 0 -195 -76t-82 -192v-273q127 99 285 99z" />
    <glyph glyph-name="seven" unicode="7" horiz-adv-x="841" 
d="M43 1538v135h752v-176l-455 -1497h-143l448 1538h-602z" />
    <glyph glyph-name="eight" unicode="8" horiz-adv-x="1019" 
d="M508 905q112 0 194 69t82 173v133q0 112 -83 188t-193 76t-195 -77q-84 -77 -84 -187v-133q0 -102 83 -172t196 -70zM477 115h60q98 1 173 69t74 166v199q0 104 -82 173t-194 69t-196 -70q-83 -70 -83 -172v-199q0 -98 75 -166t173 -69zM94 1147v133q0 166 123 280
t291 114t290 -114q122 -112 122 -280v-133q0 -184 -146 -299q145 -115 146 -299v-199q0 -154 -114 -259t-269 -105h-60q-157 0 -269 105t-114 259v199q0 178 148 299q-148 117 -148 299z" />
    <glyph glyph-name="nine" unicode="9" horiz-adv-x="1021" 
d="M508 688q112 0 194 76t82 190v320q0 116 -82 192t-194 76t-196 -77q-83 -77 -83 -191v-320q0 -114 83 -190t196 -76zM500 555q-158 0 -282 117t-124 282v320q0 168 123 284t291 116t291 -116t123 -284v-893q0 -168 -123 -284q-123 -115 -290 -115t-290 116t-125 283v94
h135v-94q0 -115 83 -192t196 -77q112 0 194 76t82 193v272q-126 -98 -284 -98z" />
    <glyph glyph-name="colon" unicode=":" horiz-adv-x="346" 
d="M250 844v-209h-156v209h156zM250 209v-209h-156v209h156z" />
    <glyph glyph-name="semicolon" unicode=";" horiz-adv-x="346" 
d="M250 209v-186l-156 -142v328h156zM250 844v-209h-156v209h156z" />
    <glyph glyph-name="less" unicode="&#x3c;" horiz-adv-x="876" 
d="M823 582v-144l-774 291v166l774 291v-144l-614 -231q469 -174 614 -229z" />
    <glyph glyph-name="equal" unicode="=" horiz-adv-x="800" 
d="M717 555h-631v137h631v-137zM717 926h-631v137h631v-137z" />
    <glyph glyph-name="greater" unicode="&#x3e;" horiz-adv-x="876" 
d="M51 438l-2 144q145 55 615 229l-615 231v144l774 -291v-166z" />
    <glyph glyph-name="question" unicode="?" horiz-adv-x="792" 
d="M344 176v-176h-156v176h156zM709 1317v-207q0 -168 -135 -296q-56 -54 -112 -106q-134 -124 -134 -268v-104h-117v104q0 92 59 192t131 169q193 188 193 291l-2 225q0 89 -60 155t-145 66q-86 0 -149 -63t-64 -158v-168h-135v168q0 147 104 251q105 104 243 105
q138 -1 230 -105t93 -251z" />
    <glyph glyph-name="at" unicode="@" horiz-adv-x="1368" 
d="M667 301q86 0 148 66q61 66 76 161l39 457l-207 -4q-86 0 -155 -66t-74 -149l-25 -277q0 -80 56 -134t142 -54zM684 -72h158q117 0 307 176v-204q-160 -100 -307 -101h-158q-276 0 -470 193t-194 471l-2 405q0 280 195 474t471 194h256q172 0 292 -120t120 -292v-442
q0 -172 -94 -302t-263 -130q-63 0 -102 10q-121 -88 -246 -88t-216 91t-91 226q0 76 11 164t14 123q16 138 118 236t240 98h180q63 0 107 -44t47 -108l-49 -579q104 18 159 106t56 197v442q0 113 -85 198t-198 85h-256q-217 0 -377 -161t-160 -378v-405q0 -217 160 -376
t377 -159z" />
    <glyph glyph-name="A" unicode="A" horiz-adv-x="952" 
d="M909 0h-141l-96 455h-400l-92 -455h-139l336 1673h182zM291 571h362l-184 869q-10 -48 -178 -869z" />
    <glyph glyph-name="B" unicode="B" horiz-adv-x="974" 
d="M492 1538h-265v-670h265q88 0 154 66t65 153v273q1 72 -65 125t-154 53zM520 754h-293v-619h293q102 -1 176 61t74 148v160q0 102 -74 176t-176 74zM492 1673q147 1 251 -109t105 -266v-211q0 -145 -146 -256q96 -57 150 -144t55 -183v-98q1 -170 -113 -288t-274 -118
h-426l-2 1673h400z" />
    <glyph glyph-name="C" unicode="C" horiz-adv-x="983" 
d="M897 342q-1 -148 -111 -252t-272 -104t-286 104t-126 252v975q0 145 125 251t287 105q162 0 272 -104t111 -252v-111h-137v111q0 89 -73 155t-175 66t-188 -67q-84 -67 -84 -154v-975q0 -88 85 -155t187 -67t175 68q73 66 73 154v119h137v-119z" />
    <glyph glyph-name="D" unicode="D" horiz-adv-x="897" 
d="M451 0h-355l-2 1673h357q143 0 249 -97t107 -241v-997q-1 -142 -107 -240t-249 -98zM451 1542h-222v-1411h222q87 0 153 59t66 148v997q0 87 -66 147t-153 60z" />
    <glyph glyph-name="E" unicode="E" horiz-adv-x="796" 
d="M737 1673v-135h-508v-668h453v-114h-453v-621h508v-135h-641l-2 1673h643z" />
    <glyph glyph-name="F" unicode="F" horiz-adv-x="751" 
d="M231 870h453v-114h-453v-756h-133l-2 1673h643v-135h-508v-668z" />
    <glyph glyph-name="G" unicode="G" horiz-adv-x="1001" 
d="M897 324q-1 -142 -113 -240t-271 -98t-284 98t-127 240v997q0 145 125 249t286 103q161 0 273 -103t111 -249v-242h-135v242q0 86 -73 152q-73 65 -177 65t-188 -66t-84 -151v-997q0 -88 85 -148t188 -59q103 0 176 59t73 148v438h-209v112h344v-550z" />
    <glyph glyph-name="H" unicode="H" horiz-adv-x="921" 
d="M819 1673v-1673h-137v756h-449v-756h-135l-2 1673h137v-803h449v803h137z" />
    <glyph glyph-name="I" unicode="I" horiz-adv-x="405" 
d="M268 1673v-1673h-141l-2 1673h143z" />
    <glyph glyph-name="J" unicode="J" horiz-adv-x="595" 
d="M143 0h-129v123q182 -2 265 43q82 45 81 147v1360h136v-1360q0 -153 -100 -233t-253 -80z" />
    <glyph glyph-name="K" unicode="K" horiz-adv-x="1028" 
d="M236 0h-134l-2 1673h136v-747q444 596 559 747h166l-482 -649l441 -1024h-132l-407 920l-145 -183v-737z" />
    <glyph glyph-name="L" unicode="L" horiz-adv-x="698" 
d="M647 135v-135h-545l-2 1673h136v-1538h411z" />
    <glyph glyph-name="M" unicode="M" horiz-adv-x="1241" 
d="M236 0h-134l-2 1673h152l377 -1468l379 1468h127v-1673h-138v1114l-280 -1114h-176l-305 1122v-1122z" />
    <glyph glyph-name="N" unicode="N" horiz-adv-x="980" 
d="M238 0h-134l-2 1673h152l483 -1290v1290h135v-1673h-120l-514 1343v-1343z" />
    <glyph glyph-name="O" unicode="O" 
d="M915 1335v-1009q0 -141 -121 -240q-122 -98 -288 -98t-289 98t-125 240v1009q0 141 124 239t290 99q166 0 288 -98q121 -99 121 -240zM227 326q0 -88 83 -148t195 -59q111 0 193 59t82 148v1009q0 87 -82 147t-194 60t-194 -59q-83 -59 -83 -148v-1009z" />
    <glyph glyph-name="P" unicode="P" horiz-adv-x="841" 
d="M461 1538h-219v-690h219q87 0 153 66t66 153v250q0 89 -66 155t-153 66zM817 1317v-250q0 -147 -104 -251t-252 -103h-219v-713h-136l-2 1673h357q145 0 251 -104q105 -105 105 -252z" />
    <glyph glyph-name="Q" unicode="Q" horiz-adv-x="995" 
d="M768 324v1009q0 87 -84 147t-192 60t-193 -59q-84 -59 -84 -148v-1009q0 -88 81 -148t232 -59l-61 264h108l62 -236q131 66 131 179zM492 -12q-168 0 -289 96t-123 240v1009q0 143 122 241t291 97q169 0 289 -97t121 -241v-1009q0 -98 -60 -176t-177 -119l49 -217h-117
l-45 176h-61z" />
    <glyph glyph-name="R" unicode="R" horiz-adv-x="929" 
d="M522 1538h-280v-670h227q88 0 149 60t62 139v250q0 93 -46 157t-112 64zM242 754v-754h-136l-2 1673h357q147 0 253 -104t105 -252v-250q0 -139 -147 -250q76 -51 119 -123t43 -147v-547h-138v547q0 82 -67 144q-68 62 -158 63h-229z" />
    <glyph glyph-name="S" unicode="S" horiz-adv-x="923" 
d="M221 1317v-246q0 -80 72 -131t197 -59q126 -8 236 -89t110 -204v-240q0 -148 -111 -252t-265 -104t-264 104t-112 252v162h135v-162q0 -88 73 -154t171 -67q98 0 167 66t68 155v240q0 72 -71 119q-72 47 -170 47q-153 0 -263 91t-110 226v246q0 147 111 251t267 105
q156 0 264 -104q110 -104 110 -252v-168h-136v168q0 92 -71 157q-72 64 -170 64t-168 -66t-70 -155z" />
    <glyph glyph-name="T" unicode="T" horiz-adv-x="882" 
d="M510 1538v-1538h-135v1538h-299v135h725v-135h-291z" />
    <glyph glyph-name="U" unicode="U" horiz-adv-x="956" 
d="M473 125q94 1 166 65t72 150v1333h137v-1333q0 -142 -111 -246t-263 -104t-262 102q-108 102 -110 248v1333h136v-1333q0 -86 70 -151q71 -64 165 -64z" />
    <glyph glyph-name="V" unicode="V" horiz-adv-x="972" 
d="M51 1673h139l297 -1503l291 1503h140l-302 -1673h-258z" />
    <glyph glyph-name="W" unicode="W" horiz-adv-x="1378" 
d="M686 1235l-215 -1235h-149l-248 1673h139l195 -1233l215 1233h129l215 -1233l194 1233h139l-247 -1673h-150z" />
    <glyph glyph-name="X" unicode="X" horiz-adv-x="1142" 
d="M569 942l326 731h154q-302 -674 -392 -860l394 -813h-152l-330 688q-59 -139 -173 -365t-156 -323h-150l393 811q-70 154 -213 467t-180 395h154z" />
    <glyph glyph-name="Y" unicode="Y" horiz-adv-x="1036" 
d="M582 0h-136v807q-59 125 -200 425t-209 441h153l326 -680l326 680h153l-413 -866v-807z" />
    <glyph glyph-name="Z" unicode="Z" horiz-adv-x="1019" 
d="M932 135v-135h-807l-2 158l631 1380h-672v135h829v-157l-635 -1381h656z" />
    <glyph glyph-name="bracketleft" unicode="[" horiz-adv-x="608" 
d="M221 1708v-1774h299v-137h-434l-2 2048h436v-137h-299z" />
    <glyph glyph-name="backslash" unicode="\" horiz-adv-x="856" 
d="M680 -27l-629 1725h121l627 -1725h-119z" />
    <glyph glyph-name="bracketright" unicode="]" horiz-adv-x="608" 
d="M383 -66v1774h-299v137h436v-2048h-434v137h297z" />
    <glyph glyph-name="asciicircum" unicode="^" horiz-adv-x="888" 
d="M379 1681h135l322 -401h-160l-230 270l-243 -270h-156z" />
    <glyph glyph-name="underscore" unicode="_" horiz-adv-x="1181" 
d="M1061 -102h-946v82h946v-82z" />
    <glyph glyph-name="grave" unicode="`" horiz-adv-x="491" 
d="M55 1673h201l129 -291h-139z" />
    <glyph glyph-name="a" unicode="a" horiz-adv-x="970" 
d="M920 0h-142l-76 291h-440l-72 -291h-139l336 1673h182zM281 408h403l-205 1032q-34 -172 -198 -1032z" />
    <glyph glyph-name="b" unicode="b" horiz-adv-x="1015" 
d="M492 1538h-265v-670h265q88 0 154 66t65 153v273q1 72 -65 125t-154 53zM520 754h-293v-619h293q102 -1 176 61t74 148v160q0 102 -74 176t-176 74zM492 1673q147 1 251 -109t105 -266v-211q0 -145 -146 -256q96 -57 150 -144t55 -183v-98q1 -170 -113 -288t-274 -118
h-426l-2 1673h400z" />
    <glyph glyph-name="c" unicode="c" horiz-adv-x="983" 
d="M897 342q-1 -148 -111 -252t-272 -104t-286 104t-126 252v975q0 145 125 251t287 105q162 0 272 -104t111 -252v-111h-137v111q0 89 -73 155t-175 66t-188 -67q-84 -67 -84 -154v-975q0 -88 85 -155t187 -67t175 68q73 66 73 154v119h137v-119z" />
    <glyph glyph-name="d" unicode="d" horiz-adv-x="897" 
d="M451 0h-355l-2 1673h357q143 0 249 -97t107 -241v-997q-1 -142 -107 -240t-249 -98zM451 1542h-222v-1411h222q87 0 153 59t66 148v997q0 87 -66 147t-153 60z" />
    <glyph glyph-name="e" unicode="e" horiz-adv-x="827" 
d="M758 1673v-135h-508v-504h452v-114h-452v-785h508v-135h-641l-2 1673h643z" />
    <glyph glyph-name="f" unicode="f" horiz-adv-x="772" 
d="M250 707h452v-115h-452v-592h-133l-2 1673h643v-135h-508v-831z" />
    <glyph glyph-name="g" unicode="g" horiz-adv-x="1001" 
d="M897 324q-1 -142 -113 -240t-271 -98t-284 98t-127 240v997q0 145 125 249t286 103q161 0 273 -103t111 -249v-242h-135v242q0 86 -73 152q-73 65 -177 65t-188 -66t-84 -151v-997q0 -88 85 -148t188 -59q103 0 176 59t73 148v274h-209v113h344v-387z" />
    <glyph glyph-name="h" unicode="h" horiz-adv-x="921" 
d="M819 1673v-1673h-137v756h-449v-756h-135l-2 1673h137v-803h449v803h137z" />
    <glyph glyph-name="i" unicode="i" horiz-adv-x="405" 
d="M268 1673v-1673h-141l-2 1673h143z" />
    <glyph glyph-name="j" unicode="j" horiz-adv-x="595" 
d="M143 0h-129v123q182 -2 265 43q82 45 81 147v1360h136v-1360q0 -153 -100 -233t-253 -80z" />
    <glyph glyph-name="k" unicode="k" horiz-adv-x="1028" 
d="M236 0h-134l-2 1673h136v-747q444 596 559 747h166l-482 -649l441 -1024h-132l-407 920l-145 -183v-737z" />
    <glyph glyph-name="l" unicode="l" horiz-adv-x="698" 
d="M647 135v-135h-545l-2 1673h136v-1538h411z" />
    <glyph glyph-name="m" unicode="m" horiz-adv-x="1241" 
d="M236 0h-134l-2 1673h152l377 -1468l379 1468h127v-1673h-138v1094l-280 -1094h-176l-305 1102v-1102z" />
    <glyph glyph-name="n" unicode="n" horiz-adv-x="980" 
d="M238 0h-134l-2 1673h152l483 -1290v1290h135v-1673h-120l-514 1323v-1323z" />
    <glyph glyph-name="o" unicode="o" 
d="M915 1335v-1009q0 -141 -121 -240q-122 -98 -288 -98t-289 98t-125 240v1009q0 141 124 239t290 99q166 0 288 -98q121 -99 121 -240zM227 326q0 -88 83 -148t195 -59q111 0 193 59t82 148v1009q0 87 -82 147t-194 60t-194 -59q-83 -59 -83 -148v-1009z" />
    <glyph glyph-name="p" unicode="p" horiz-adv-x="866" 
d="M471 1538h-219v-854h219q88 0 154 66t65 153v414q0 89 -66 155t-153 66zM827 1317v-414q0 -147 -104 -251t-252 -103h-219v-549h-135l-2 1673h356q145 0 251 -104q105 -105 105 -252z" />
    <glyph glyph-name="q" unicode="q" horiz-adv-x="995" 
d="M768 324v1009q0 87 -84 147t-192 60t-193 -59q-84 -59 -84 -148v-1009q0 -88 81 -148t232 -59l-61 264h108l62 -236q131 66 131 179zM492 -12q-168 0 -289 96t-123 240v1009q0 143 122 241t291 97q169 0 289 -97t121 -241v-1009q0 -98 -60 -176t-177 -119l49 -217h-117
l-45 176h-61z" />
    <glyph glyph-name="r" unicode="r" horiz-adv-x="950" 
d="M471 1538h-219v-833h227q88 0 150 59q61 59 61 139v414q0 94 -62 158q-63 63 -157 63zM252 590v-590h-135l-2 1673h356q147 0 253 -104t105 -252v-414q0 -139 -147 -250q162 -111 162 -270v-383h-137v383q0 82 -68 144t-158 63h-229z" />
    <glyph glyph-name="s" unicode="s" horiz-adv-x="923" 
d="M221 1317v-246q0 -80 72 -131t197 -59q126 -8 236 -89t110 -204v-240q0 -148 -111 -252t-265 -104t-264 104t-112 252v162h135v-162q0 -88 73 -154t171 -67q98 0 167 66t68 155v240q0 72 -71 119q-72 47 -170 47q-153 0 -263 91t-110 226v246q0 147 111 251t267 105
q156 0 264 -104q110 -104 110 -252v-168h-136v168q0 92 -71 157q-72 64 -170 64t-168 -66t-70 -155z" />
    <glyph glyph-name="t" unicode="t" horiz-adv-x="882" 
d="M510 1538v-1538h-135v1538h-299v135h725v-135h-291z" />
    <glyph glyph-name="u" unicode="u" horiz-adv-x="956" 
d="M473 125q94 1 166 65t72 150v1333h137v-1333q0 -142 -111 -246t-263 -104t-262 102q-108 102 -110 248v1333h136v-1333q0 -86 70 -151q71 -64 165 -64z" />
    <glyph glyph-name="v" unicode="v" horiz-adv-x="972" 
d="M51 1673h139l297 -1503l291 1503h140l-302 -1673h-258z" />
    <glyph glyph-name="w" unicode="w" horiz-adv-x="1378" 
d="M686 1235l-215 -1235h-149l-248 1673h139l195 -1233l215 1233h129l215 -1233l194 1233h139l-247 -1673h-150z" />
    <glyph glyph-name="x" unicode="x" horiz-adv-x="1142" 
d="M569 922q90 213 326 751h154q-302 -674 -392 -860l394 -813h-152l-330 709q-59 -143 -173 -377t-156 -332h-150l393 811q-70 154 -213 467t-180 395h154z" />
    <glyph glyph-name="y" unicode="y" horiz-adv-x="1036" 
d="M582 0h-136v807q-59 125 -200 425t-209 441h153l326 -680l326 680h153l-413 -866v-807z" />
    <glyph glyph-name="z" unicode="z" horiz-adv-x="1019" 
d="M932 135v-135h-807l-2 158l631 1380h-672v135h829v-157l-635 -1381h656z" />
    <glyph glyph-name="braceleft" unicode="{" horiz-adv-x="634" 
d="M330 2q0 -37 24 -67q15 -17 58 -17h90h78v-115q-80 -6 -134 -6q-120 -1 -186 63t-65 183v645q0 48 -34 68t-112 20v144q78 0 112 19t34 69v475q0 73 1 109t13 94t38 87q66 76 199 74h134v-123h-70q-96 0 -129 -9t-44 -27t-11 -50l4 -647q0 -100 -90 -143q55 -26 72 -58
t18 -85v-703z" />
    <glyph glyph-name="bar" unicode="|" horiz-adv-x="346" 
d="M219 1823v-2007h-113l-2 2007h115z" />
    <glyph glyph-name="braceright" unicode="}" horiz-adv-x="634" 
d="M119 1724h-70v123h133q134 0 200 -74q26 -30 39 -92t13 -198v-475q0 -48 34 -68t112 -20v-144q-78 0 -112 -19t-34 -69v-645q0 -119 -66 -182t-186 -64q-51 0 -131 6v115h116q94 0 104 13q28 34 28 71v682q0 61 13 98t57 66q-70 49 -70 164l4 626q0 62 -52 76
q-37 10 -132 10z" />
    <glyph glyph-name="asciitilde" unicode="~" horiz-adv-x="825" 
d="M272 944q60 0 142 -37t125 -37t135 93l92 -93q-82 -82 -138 -120t-118 -36q-62 1 -148 37q-86 35 -124 35t-136 -94l-88 99q78 77 138 115t120 38z" />
    <glyph glyph-name="exclamdown" unicode="&#xa1;" horiz-adv-x="376" 
d="M244 930l28 -1340h-170l27 1340h115zM264 1264v-177h-155v177h155z" />
    <glyph glyph-name="cent" unicode="&#xa2;" horiz-adv-x="749" 
d="M170 1001q0 -330 5 -392t38 -70l260 675q-43 8 -84 9q-87 0 -153 -67t-66 -155zM53 614v387q1 139 99 237t237 99q70 0 121 -12q2 4 4 11l8 28q6 20 19 51h127l-58 -162q43 -33 68 -67t36 -92q11 -57 11 -183h-117v47q0 123 -39 189l-282 -729q43 -25 117 -25t139 67
q66 67 65 154v99h117v-99q0 -139 -98 -237t-238 -98q-70 0 -131 16l-45 -127h-125l78 217q-113 106 -113 229z" />
    <glyph glyph-name="sterling" unicode="&#xa3;" horiz-adv-x="831" 
d="M16 788v117h90v402q0 147 106 251t252 105q146 0 250 -104t105 -252v-111h-137v111q0 89 -66 155t-152 66t-154 -68q-67 -68 -66 -153v-402h401v-117h-401v-620q90 14 196 -26t154 -40t149 64l78 -76q-78 -72 -122 -96t-107 -23q-64 0 -152 37t-135 37t-141 -94l-105 115
q43 41 50 51l-3 671h-90z" />
    <glyph glyph-name="currency" unicode="&#xa4;" horiz-adv-x="829" 
d="M412 1075q-82 0 -140 -67q-57 -68 -57 -151t57 -149q58 -66 140 -67q82 0 139 67q57 66 57 150t-57 150t-139 67zM416 1192q92 0 174 -47l98 153h135l-149 -243q57 -86 61 -197q-4 -113 -61 -199q133 -215 149 -241h-131l-98 147q-82 -41 -182 -41t-181 41l-98 -147h-129
l146 241q-61 92 -58 199q-4 109 58 199q-2 4 -12 18t-132 223h129l96 -149q93 43 185 43z" />
    <glyph glyph-name="yen" unicode="&#xa5;" horiz-adv-x="1036" 
d="M831 936v-137h-245v-172h245v-138h-245v-489h-140v489h-245v138h245v172h-245v137h159l-323 737h153l326 -721l326 721h153l-325 -737h161z" />
    <glyph glyph-name="brokenbar" unicode="&#xa6;" horiz-adv-x="395" 
d="M252 606v-790h-113l-2 790h115zM252 1823v-791h-115v791h115z" />
    <glyph glyph-name="section" unicode="&#xa7;" horiz-adv-x="755" 
d="M180 831v-108q0 -66 66 -112t138 -46t131 48q60 48 60 124v105q0 70 -63 116t-138 48q-74 0 -134 -50t-60 -125zM702 842v-105q0 -117 -94 -198q94 -74 94 -187v-202q0 -121 -100 -201t-223 -80t-222 80t-100 201v137h123v-137q0 -72 62 -119t137 -47q76 0 136 47t60 119
v202q0 45 -61 72t-139 27q-145 0 -234 83q-88 83 -88 226q-6 180 88 268q-86 80 -86 186v207q-1 123 99 204t225 81t224 -80t99 -205v-143h-124v143q0 74 -60 122t-138 48q-77 0 -138 -48t-62 -122v-207q0 -44 60 -70t139 -26q119 0 221 -78t102 -198z" />
    <glyph glyph-name="dieresis" unicode="&#xa8;" horiz-adv-x="624" 
d="M483 1671v-162h-114v162h114zM252 1671v-162h-115v162h115z" />
    <glyph glyph-name="copyright" unicode="&#xa9;" horiz-adv-x="1773" 
d="M1227 621q1 -137 -99 -237t-244 -99q-144 0 -258 99q-112 99 -112 237v360q0 137 113 237t257 99q144 0 243 -99t100 -237v-90h-117v90q0 90 -63 156q-63 65 -161 65t-177 -66q-78 -66 -78 -155v-360q0 -88 78 -155t176 -67t162 66q63 66 63 156v98h117v-98zM884 1554
q-310 0 -528 -219t-219 -528q0 -309 218 -528q219 -219 529 -219t529 218t221 529q-2 311 -221 529t-529 218zM1712 807q0 -342 -243 -585q-243 -242 -585 -242t-583 242q-242 242 -242 585q-2 342 241 585q243 242 585 242q343 0 585 -242t242 -585z" />
    <glyph glyph-name="guillemotleft" unicode="&#xab;" horiz-adv-x="989" 
d="M907 389v-184l-426 467v133l426 467v-185l-309 -350q299 -338 309 -348zM504 389v-184l-426 467v133l426 467v-185l-309 -350q299 -338 309 -348z" />
    <glyph glyph-name="logicalnot" unicode="&#xac;" horiz-adv-x="964" 
d="M866 909v-370h-137v233h-637v137h774z" />
    <glyph glyph-name="registered" unicode="&#xae;" horiz-adv-x="1773" 
d="M884 1554q-310 0 -528 -219t-219 -528q0 -309 218 -528q219 -219 529 -219t529 218t221 529q-2 311 -221 529t-529 218zM1712 807q0 -342 -243 -585q-243 -242 -585 -242t-583 242q-242 242 -242 585q-2 342 241 585q243 242 585 242q343 0 585 -242t242 -585zM729 1217
v-472h135q84 1 142 63t59 146v52q0 90 -60 150t-149 61h-127zM729 260h-137v1092h264q144 0 246 -102t102 -244v-52q0 -135 -131 -249q145 -111 146 -271v-174h-138v174q0 80 -64 138q-65 58 -151 59h-137v-371z" />
    <glyph glyph-name="degree" unicode="&#xb0;" horiz-adv-x="591" 
d="M416 1459q0 48 -37 85t-85 37t-85 -37t-37 -85t37 -85t85 -37t85 37t37 85zM508 1458q0 -90 -62 -151t-154 -61t-152 60t-60 152t61 154t151 61t152 -63q64 -62 64 -152z" />
    <glyph glyph-name="plusminus" unicode="&#xb1;" horiz-adv-x="907" 
d="M836 0h-768v117h768v-117zM838 868v-116h-328v-330h-117v330h-330v116h330v326h117v-326h328z" />
    <glyph glyph-name="twosuperior" unicode="&#xb2;" horiz-adv-x="901" 
d="M334 1427v-174h-113v174q0 91 67 155q66 64 156 64t157 -65q67 -66 67 -154v-202q0 -76 -30 -134t-60 -85t-86 -62q-152 -98 -150 -223h344v-111h-479v64q0 116 35 192t129 140q63 38 96 64t61 66q29 40 29 85l-2 206q-2 43 -35 76t-75 33q-43 0 -77 -34t-34 -75z" />
    <glyph glyph-name="threesuperior" unicode="&#xb3;" horiz-adv-x="878" 
d="M377 1071h-78v111h109q131 4 131 90v153q0 43 -34 76t-79 33t-81 -33t-36 -76v-172h-112v172q0 94 68 158q69 63 161 63t159 -62q67 -64 66 -159v-153q0 -86 -53 -146q53 -53 53 -141v-154q-1 -94 -67 -157q-66 -64 -158 -64t-161 64t-68 157v168h112v-168q2 -47 37 -77
t80 -31q45 0 79 31t34 77v154q-8 60 -56 73q-49 13 -106 13z" />
    <glyph glyph-name="acute" unicode="&#xb4;" horiz-adv-x="491" 
d="M205 1673h201l-191 -291h-139z" />
    <glyph glyph-name="mu" unicode="&#xb5;" horiz-adv-x="892" 
d="M659 68q-69 -68 -243 -68q-88 0 -191 55v-348h-133v1458h135v-815q0 -86 65 -150q66 -64 150 -65t149 59t68 148v823h138l-2 -1165h-136v68z" />
    <glyph glyph-name="mu" unicode="&#x3bc;" horiz-adv-x="892" 
d="M659 68q-69 -68 -243 -68q-88 0 -191 55v-348h-133v1458h135v-815q0 -86 65 -150q66 -64 150 -65t149 59t68 148v823h138l-2 -1165h-136v68z" />
    <glyph glyph-name="paragraph" unicode="&#xb6;" horiz-adv-x="1138" 
d="M1063 1462v-135h-145v-1622h-136v1622h-327v-1622h-136v1161q-109 14 -179 100t-68 204q0 120 87 206t212 86h692z" />
    <glyph glyph-name="periodcentered" unicode="&#xb7;" horiz-adv-x="393" 
d="M268 903v-209h-155v209h155z" />
    <glyph glyph-name="cedilla" unicode="&#xb8;" horiz-adv-x="299" 
d="M74 35h67v-66q57 6 98 -22q40 -29 40 -92t-41 -95q-79 -61 -218 -4l35 64q45 -23 78 -23q74 0 74 60q0 39 -46 49t-87 4v125z" />
    <glyph glyph-name="onesuperior" unicode="&#xb9;" horiz-adv-x="542" 
d="M365 612h-111v803q-20 -2 -129 -2h-49v113h57q121 0 121 22v101h111v-1037z" />
    <glyph glyph-name="guillemotright" unicode="&#xbb;" horiz-adv-x="989" 
d="M481 205v184q10 10 310 348l-310 350v185l426 -467v-133zM80 205l-2 184q10 10 309 348l-309 350v185l426 -467v-133z" />
    <glyph glyph-name="onequarter" unicode="&#xbc;" horiz-adv-x="1353" 
d="M199 -27h-101l1049 1725h104zM385 612h-111v803q-20 -2 -129 -2h-49v113h56q123 0 122 22v101h111v-1037zM1012 315l2 521q-184 -406 -228 -521h226zM1122 205v-205h-110v205h-348v114l323 717h135v-721h68v-110h-68z" />
    <glyph glyph-name="onehalf" unicode="&#xbd;" horiz-adv-x="1392" 
d="M983 817v-174h-113v174q0 91 67 155t157 64t156 -66t67 -153v-203q0 -76 -30 -134q-31 -58 -61 -85t-85 -61q-152 -98 -150 -223h344v-111h-479v63q0 117 35 193t113 127t112 77q92 72 90 150l-2 207q-2 43 -35 76t-75 33t-76 -34q-35 -34 -35 -75zM1255 1698
l-1052 -1725h-101l1049 1725h104zM389 612h-110v803q-20 -2 -129 -2h-50v113h58q121 0 121 22v101h110v-1037z" />
    <glyph glyph-name="threequarters" unicode="&#xbe;" horiz-adv-x="1411" 
d="M1063 315l2 521q-184 -406 -227 -521h225zM1174 205v-205h-111v205h-348v114l323 717h136v-721h67v-110h-67zM240 1098h-78v110h108q131 4 131 90v154q0 43 -33 76q-34 33 -79 33t-81 -33t-36 -76v-172h-113v172q0 94 69 158t161 63q93 0 159 -63t66 -158v-154
q0 -86 -53 -145q53 -53 53 -141v-154q0 -94 -67 -158t-159 -63q-92 0 -160 63q-69 63 -69 158v168h113v-168q2 -47 37 -78q35 -30 80 -30t79 30t33 78v154q-8 61 -58 73q-50 13 -103 13zM1303 1698l-1053 -1725h-100l1048 1725h105z" />
    <glyph glyph-name="questiondown" unicode="&#xbf;" horiz-adv-x="792" 
d="M442 1087v177h156v-177h-156zM459 823v105h116v-105q0 -92 -59 -191t-131 -169q-192 -187 -192 -291l2 -225q0 -88 59 -155q59 -66 145 -66t150 63q63 63 63 158v168h136v-168q0 -147 -104 -251t-244 -106q-138 0 -229 105t-91 252l-2 207q0 164 134 296q56 54 113 106
q134 124 134 267z" />
    <glyph glyph-name="Agrave" unicode="&#xc0;" horiz-adv-x="952" 
d="M209 2052h201l129 -291h-140zM909 0h-141l-96 455h-400l-92 -455h-139l336 1673h182zM291 571h362l-184 869q-10 -48 -178 -869z" />
    <glyph glyph-name="Aacute" unicode="&#xc1;" horiz-adv-x="952" 
d="M526 2054h201l-190 -291h-140zM909 0h-141l-96 455h-400l-92 -455h-139l336 1673h182zM291 571h362l-184 869q-10 -48 -178 -869z" />
    <glyph glyph-name="Acircumflex" unicode="&#xc2;" horiz-adv-x="952" 
d="M532 1964l162 -203h-102l-115 127l-117 -127h-108l172 203h108zM768 0l-96 455h-400l-92 -455h-139l336 1673h182l350 -1673h-141zM653 571l-184 869q-10 -47 -178 -869h362z" />
    <glyph glyph-name="Atilde" unicode="&#xc3;" horiz-adv-x="952" 
d="M565 1798q-27 0 -103 26t-95 26q-52 -1 -87 -48q-13 -16 -18 -20l-45 59q31 35 44 49t43 32t60 20q30 0 102 -26q71 -26 120 -26t90 62l51 -66q-64 -88 -162 -88zM909 0h-141l-96 455h-400l-92 -455h-139l336 1673h182zM291 571h362l-184 869q-10 -48 -178 -869z" />
    <glyph glyph-name="Adieresis" unicode="&#xc4;" horiz-adv-x="952" 
d="M647 1944v-162h-115v162h115zM416 1944v-162h-115v162h115zM909 0h-141l-96 455h-400l-92 -455h-139l336 1673h182zM291 571h362l-184 869q-10 -48 -178 -869z" />
    <glyph glyph-name="Aring" unicode="&#xc5;" horiz-adv-x="952" 
d="M563 1915q-1 37 -27 63t-63 27q-37 0 -63 -27q-26 -28 -27 -64q0 -36 27 -63q28 -27 64 -27t63 27q26 27 26 64zM317 1914q0 68 45 112q46 44 110 44t110 -46t47 -110q0 -64 -45 -110q-45 -45 -112 -45t-111 44t-44 111zM909 0h-141l-96 455h-400l-90 -455h-141l336 1673
h182zM291 571h362l-184 869q-10 -48 -178 -869z" />
    <glyph glyph-name="AE" unicode="&#xc6;" horiz-adv-x="1466" 
d="M1374 135v-135h-667v414h-338l-189 -414h-143l690 1673h647v-135h-526l2 -668h469v-114h-469l-4 -621h528zM709 551v686l-281 -686h281z" />
    <glyph glyph-name="Ccedilla" unicode="&#xc7;" horiz-adv-x="983" 
d="M102 342v975q0 145 125 251t287 105q162 0 272 -104t111 -252v-111h-137v111q0 89 -73 155t-175 66t-188 -67q-84 -67 -84 -154v-975q0 -88 85 -155t187 -67t175 68q73 66 73 154v119h137v-119q0 -140 -99 -242t-245 -112v-19q57 5 97 -23t40 -91t-41 -95
q-79 -61 -217 -4l27 64q45 -23 80 -23q35 1 57 17t22 39q0 78 -133 41v94q-159 10 -271 114t-112 240z" />
    <glyph glyph-name="Egrave" unicode="&#xc8;" horiz-adv-x="796" 
d="M195 2052h200l129 -291h-139zM737 1673v-135h-508v-668h453v-114h-453v-621h508v-135h-641l-2 1673h643z" />
    <glyph glyph-name="Eacute" unicode="&#xc9;" horiz-adv-x="796" 
d="M469 2052h201l-191 -291h-139zM737 1673v-135h-508v-668h453v-114h-453v-621h508v-135h-641l-2 1673h643z" />
    <glyph glyph-name="Ecircumflex" unicode="&#xca;" horiz-adv-x="796" 
d="M455 1964l161 -203h-102l-115 127l-116 -127h-109l172 203h109zM737 1673v-135h-508v-668h453v-114h-453v-621h508v-135h-641l-2 1673h643z" />
    <glyph glyph-name="Edieresis" unicode="&#xcb;" horiz-adv-x="796" 
d="M588 1944v-162h-115v162h115zM356 1944v-162h-114v162h114zM737 1673v-135h-508v-668h453v-114h-453v-621h508v-135h-641l-2 1673h643z" />
    <glyph glyph-name="Igrave" unicode="&#xcc;" horiz-adv-x="405" 
d="M-74 2052h199l129 -291h-139zM268 1673v-1673h-141l-2 1673h143z" />
    <glyph glyph-name="Iacute" unicode="&#xcd;" horiz-adv-x="405" 
d="M250 2052h201l-191 -291h-139zM268 1673v-1673h-141l-2 1673h143z" />
    <glyph glyph-name="Icircumflex" unicode="&#xce;" horiz-adv-x="405" 
d="M260 1966l162 -203h-103l-114 127l-117 -127h-106l170 203h108zM268 0h-141l-2 1673h143v-1673z" />
    <glyph glyph-name="Idieresis" unicode="&#xcf;" horiz-adv-x="405" 
d="M375 1946v-162h-115v162h115zM143 1946v-162h-114v162h114zM268 1673v-1673h-141l-2 1673h143z" />
    <glyph glyph-name="Eth" unicode="&#xd0;" horiz-adv-x="985" 
d="M539 1542h-222v-674h271v-116h-271v-621h222q87 0 153 59t66 148v997q0 87 -66 147t-153 60zM182 752h-131v116h131v805h357q143 0 249 -97t107 -241v-997q-1 -142 -107 -240t-249 -98h-357v752z" />
    <glyph glyph-name="Ntilde" unicode="&#xd1;" horiz-adv-x="980" 
d="M580 1800q-27 0 -103 26t-96 26q-52 -1 -87 -48q-13 -16 -18 -20l-45 59q31 35 44 49t43 32t62 20q32 0 102 -26t119 -26q48 0 89 62l51 -66q-63 -88 -161 -88zM238 0h-134l-2 1673h152l483 -1290v1290h135v-1673h-120l-514 1343v-1343z" />
    <glyph glyph-name="Ograve" unicode="&#xd2;" 
d="M223 2052h201l129 -291h-139zM915 1335v-1009q0 -141 -121 -240q-122 -98 -288 -98t-289 98t-123 240l-2 1009q0 141 124 239t290 99q166 0 288 -98q121 -99 121 -240zM227 326q0 -88 83 -148t195 -59q111 0 193 59t82 148v1009q0 87 -82 147t-194 60t-194 -59
q-83 -59 -83 -148v-1009z" />
    <glyph glyph-name="Oacute" unicode="&#xd3;" 
d="M553 2052h201l-191 -291h-139zM915 1335v-1009q0 -141 -121 -240q-122 -98 -288 -98t-289 98t-123 240l-2 1009q0 141 124 239t290 99q166 0 288 -98q121 -99 121 -240zM227 326q0 -88 83 -148t195 -59q111 0 193 59t82 148v1009q0 87 -82 147t-194 60t-194 -59
q-83 -59 -83 -148v-1009z" />
    <glyph glyph-name="Ocircumflex" unicode="&#xd4;" 
d="M563 1964l162 -203h-102l-115 127l-117 -127h-108l172 203h108zM915 326q0 -141 -121 -240q-122 -98 -288 -98t-289 98t-123 240l-2 1009q0 141 124 239t290 99q166 0 288 -98t121 -240v-1009zM227 326q0 -88 83 -148t195 -59q111 0 193 59t82 148v1009q0 87 -82 147
t-194 60t-194 -59q-83 -59 -83 -148v-1009z" />
    <glyph glyph-name="Otilde" unicode="&#xd5;" 
d="M596 1798q-26 0 -102 26t-96 26t-44 -11q-23 -10 -40 -32q-17 -21 -21 -25l-45 59q31 35 44 49t43 32q31 18 61 20q30 0 102 -26t120 -26t89 62l51 -66q-64 -88 -162 -88zM915 1335v-1009q0 -141 -121 -240q-122 -98 -288 -98t-289 98t-123 240l-2 1009q0 141 124 239
t290 99q166 0 288 -98q121 -99 121 -240zM227 326q0 -88 83 -148t195 -59q111 0 193 59t82 148v1009q0 87 -82 147t-194 60t-194 -59q-83 -59 -83 -148v-1009z" />
    <glyph glyph-name="Odieresis" unicode="&#xd6;" 
d="M678 1944v-162h-115v162h115zM446 1944v-162h-114v162h114zM915 1335v-1009q0 -141 -121 -240q-122 -98 -288 -98t-289 98t-123 240l-2 1009q0 141 124 239t290 99q166 0 288 -98q121 -99 121 -240zM227 326q0 -88 83 -148t195 -59q111 0 193 59t82 148v1009
q0 87 -82 147t-194 60t-194 -59q-83 -59 -83 -148v-1009z" />
    <glyph glyph-name="multiply" unicode="&#xd7;" horiz-adv-x="835" 
d="M647 1124l82 -82l-231 -231l233 -233l-84 -84l-231 233l-234 -233l-84 84l234 233l-230 229l82 82l232 -229z" />
    <glyph glyph-name="Oslash" unicode="&#xd8;" 
d="M504 1542q-111 0 -194 -59t-83 -148v-925l469 1030q-8 42 -67 72t-125 30zM522 119q94 0 176 59t82 148v1003l-487 -1075q15 -59 75 -97t154 -38zM915 1335v-1009q0 -141 -121 -240q-122 -98 -295 -98t-298 110l-58 -125h-116l100 217q-33 63 -35 136v1009q0 141 124 239
t286 99q162 0 280 -90l54 115h118l-92 -197q53 -80 53 -166z" />
    <glyph glyph-name="Ugrave" unicode="&#xd9;" horiz-adv-x="956" 
d="M205 2054h201l129 -291h-140zM473 125q94 1 166 65t72 150v1333h137v-1333q0 -142 -111 -246t-263 -104t-262 102q-108 102 -108 248l-2 1333h136v-1333q0 -86 70 -151q71 -64 165 -64z" />
    <glyph glyph-name="Uacute" unicode="&#xda;" horiz-adv-x="956" 
d="M524 2052h201l-190 -291h-140zM473 125q94 1 166 65t72 150v1333h137v-1333q0 -142 -111 -246t-263 -104t-262 102q-108 102 -108 248l-2 1333h136v-1333q0 -86 70 -151q71 -64 165 -64z" />
    <glyph glyph-name="Ucircumflex" unicode="&#xdb;" horiz-adv-x="956" 
d="M535 1964l161 -203h-102l-115 127l-117 -127h-108l172 203h109zM473 125q94 1 166 65t72 150v1333h137v-1333q0 -142 -111 -246t-263 -104t-262 102q-108 102 -108 248l-2 1333h136v-1333q0 -86 70 -151q71 -64 165 -64z" />
    <glyph glyph-name="Udieresis" unicode="&#xdc;" horiz-adv-x="956" 
d="M649 1944v-162h-114v162h114zM418 1944v-162h-115v162h115zM473 125q94 1 166 65t72 150v1333h137v-1333q0 -142 -111 -246t-263 -104t-262 102q-108 102 -108 248l-2 1333h136v-1333q0 -86 70 -151q71 -64 165 -64z" />
    <glyph glyph-name="Yacute" unicode="&#xdd;" horiz-adv-x="1036" 
d="M567 2052h201l-190 -291h-140zM582 0h-136v807q-59 125 -200 425t-209 441h153l326 -680l326 680h153l-413 -866v-807z" />
    <glyph glyph-name="Thorn" unicode="&#xde;" horiz-adv-x="845" 
d="M471 322h-219v-322h-135l-2 1673h137v-389h219q145 0 251 -105t105 -251v-252q0 -147 -104 -251q-105 -103 -252 -103zM471 1147h-219v-688h219q88 0 154 63t65 154v252q0 88 -66 154t-153 65z" />
    <glyph glyph-name="germandbls" unicode="&#xdf;" horiz-adv-x="1763" 
d="M1065 1317v-246q0 -80 71 -131t197 -59q127 -8 237 -89t109 -204v-240q0 -147 -110 -252q-111 -104 -265 -104t-266 104q-111 104 -110 252v162h135v-162q0 -88 73 -154t171 -67q98 0 167 66t68 155v240q0 72 -72 119t-170 47q-152 0 -262 91t-110 226v246q0 147 110 252
q111 104 267 104q155 0 265 -104t109 -252v-168h-135v168q0 92 -71 157q-72 64 -170 64t-168 -66t-70 -155zM221 1317v-246q0 -80 72 -131t197 -59q126 -8 236 -89t110 -204v-240q0 -148 -111 -252t-265 -104t-264 104t-112 252v162h135v-162q0 -88 73 -154t171 -67
q98 0 167 66t68 155v240q0 72 -71 119q-72 47 -170 47q-153 0 -263 91t-110 226v246q0 147 111 251t267 105q156 0 264 -104q110 -104 110 -252v-168h-136v168q0 92 -71 157q-72 64 -170 64t-168 -66t-70 -155z" />
    <glyph glyph-name="agrave" unicode="&#xe0;" horiz-adv-x="970" 
d="M211 2052h201l129 -291h-140zM920 0h-142l-76 291h-440l-72 -291h-139l336 1673h182zM281 408h403l-205 1032q-34 -172 -198 -1032z" />
    <glyph glyph-name="aacute" unicode="&#xe1;" horiz-adv-x="970" 
d="M532 2052h201l-190 -291h-140zM920 0h-142l-76 291h-440l-72 -291h-139l336 1673h182zM281 408h403l-205 1032q-34 -172 -198 -1032z" />
    <glyph glyph-name="acircumflex" unicode="&#xe2;" horiz-adv-x="970" 
d="M537 1964l161 -203h-102l-115 127l-116 -127h-109l172 203h109zM778 0l-76 291h-440l-72 -291h-139l336 1673h182l351 -1673h-142zM684 408l-205 1032q-35 -172 -198 -1032h403z" />
    <glyph glyph-name="atilde" unicode="&#xe3;" horiz-adv-x="970" 
d="M573 1798q-27 0 -103 26t-95 26q-52 -1 -87 -48q-13 -16 -18 -20l-45 59q31 35 44 49t43 32t62 20q32 0 102 -26t118 -26q49 0 90 62l51 -66q-64 -88 -162 -88zM920 0h-142l-76 291h-440l-72 -291h-139l336 1673h182zM281 408h403l-205 1032q-34 -172 -198 -1032z" />
    <glyph glyph-name="adieresis" unicode="&#xe4;" horiz-adv-x="970" 
d="M655 1944v-162h-114v162h114zM424 1944v-162h-115v162h115zM920 0h-142l-76 291h-440l-72 -291h-139l336 1673h182zM281 408h403l-205 1032q-34 -172 -198 -1032z" />
    <glyph glyph-name="aring" unicode="&#xe5;" horiz-adv-x="970" 
d="M573 1917q-1 37 -27 63t-63 27q-37 0 -63 -27q-26 -28 -27 -64q0 -36 27 -63q28 -27 64 -27t63 27q26 27 26 64zM639 1917q0 -66 -45 -111t-112 -45q-66 0 -110 44t-44 111t45 112t111 45t110 -45q45 -45 45 -111zM920 0h-142l-76 291h-440l-72 -291h-139l336 1673h182z
M281 408h403l-205 1032q-34 -172 -198 -1032z" />
    <glyph glyph-name="ae" unicode="&#xe6;" horiz-adv-x="1466" 
d="M1374 135v-135h-667v414h-338l-189 -414h-143l690 1673h647v-135h-526l2 -668h469v-114h-469l-4 -621h528zM709 551v686l-281 -686h281z" />
    <glyph glyph-name="ccedilla" unicode="&#xe7;" horiz-adv-x="983" 
d="M102 342v975q0 145 125 251t287 105q162 0 272 -104t111 -252v-111h-137v111q0 89 -73 155t-175 66t-188 -67q-84 -67 -84 -154v-975q0 -88 85 -155t187 -67t175 68q73 66 73 154v119h137v-119q0 -140 -99 -242t-245 -112v-19q57 5 97 -23t40 -91t-41 -95
q-79 -61 -217 -4l27 64q45 -23 80 -23q35 1 57 17t22 39q0 78 -133 41v94q-159 10 -271 114t-112 240z" />
    <glyph glyph-name="egrave" unicode="&#xe8;" horiz-adv-x="827" 
d="M205 2052h201l129 -291h-140zM758 1673v-135h-508v-504h452v-114h-452v-785h508v-135h-641l-2 1673h643z" />
    <glyph glyph-name="eacute" unicode="&#xe9;" horiz-adv-x="827" 
d="M465 2054h201l-191 -291h-139zM758 1673v-135h-508v-504h452v-114h-452v-785h508v-135h-641l-2 1673h643z" />
    <glyph glyph-name="ecircumflex" unicode="&#xea;" horiz-adv-x="827" 
d="M504 1964l162 -203h-103l-114 127l-117 -127h-109l172 203h109zM758 1673v-135h-508v-504h452v-114h-452v-785h508v-135h-641l-2 1673h643z" />
    <glyph glyph-name="edieresis" unicode="&#xeb;" horiz-adv-x="827" 
d="M614 1944v-162h-114v162h114zM383 1944v-162h-115v162h115zM758 1673v-135h-508v-504h452v-114h-452v-785h508v-135h-641l-2 1673h643z" />
    <glyph glyph-name="igrave" unicode="&#xec;" horiz-adv-x="405" 
d="M-74 2052h199l129 -291h-139zM268 1673v-1673h-141l-2 1673h143z" />
    <glyph glyph-name="iacute" unicode="&#xed;" horiz-adv-x="405" 
d="M250 2052h201l-191 -291h-139zM268 1673v-1673h-141l-2 1673h143z" />
    <glyph glyph-name="icircumflex" unicode="&#xee;" horiz-adv-x="405" 
d="M260 1966l162 -203h-103l-114 127l-117 -127h-106l170 203h108zM268 0h-141l-2 1673h143v-1673z" />
    <glyph glyph-name="idieresis" unicode="&#xef;" horiz-adv-x="405" 
d="M375 1946v-162h-115v162h115zM143 1946v-162h-114v162h114zM268 1673v-1673h-141l-2 1673h143z" />
    <glyph glyph-name="eth" unicode="&#xf0;" horiz-adv-x="985" 
d="M539 1542h-222v-674h271v-116h-271v-621h222q87 0 153 59t66 148v997q0 87 -66 147t-153 60zM182 752h-131v116h131v805h357q143 0 249 -97t107 -241v-997q-1 -142 -107 -240t-249 -98h-357v752z" />
    <glyph glyph-name="ntilde" unicode="&#xf1;" horiz-adv-x="980" 
d="M580 1800q-27 0 -103 26t-96 26q-52 -1 -87 -48q-13 -16 -18 -20l-45 59q31 35 44 49t43 32t62 20q32 0 102 -26t119 -26q48 0 89 62l51 -66q-63 -88 -161 -88zM238 0h-134l-2 1673h152l483 -1290v1290h135v-1673h-120l-514 1343v-1343z" />
    <glyph glyph-name="ograve" unicode="&#xf2;" 
d="M223 2052h201l129 -291h-139zM915 1335v-1009q0 -141 -121 -240q-122 -98 -288 -98t-289 98t-123 240l-2 1009q0 141 124 239t290 99q166 0 288 -98q121 -99 121 -240zM227 326q0 -88 83 -148t195 -59q111 0 193 59t82 148v1009q0 87 -82 147t-194 60t-194 -59
q-83 -59 -83 -148v-1009z" />
    <glyph glyph-name="oacute" unicode="&#xf3;" 
d="M553 2052h201l-191 -291h-139zM915 1335v-1009q0 -141 -121 -240q-122 -98 -288 -98t-289 98t-123 240l-2 1009q0 141 124 239t290 99q166 0 288 -98q121 -99 121 -240zM227 326q0 -88 83 -148t195 -59q111 0 193 59t82 148v1009q0 87 -82 147t-194 60t-194 -59
q-83 -59 -83 -148v-1009z" />
    <glyph glyph-name="ocircumflex" unicode="&#xf4;" 
d="M563 1964l162 -203h-102l-115 127l-117 -127h-108l172 203h108zM915 326q0 -141 -121 -240q-122 -98 -288 -98t-289 98t-123 240l-2 1009q0 141 124 239t290 99q166 0 288 -98t121 -240v-1009zM227 326q0 -88 83 -148t195 -59q111 0 193 59t82 148v1009q0 87 -82 147
t-194 60t-194 -59q-83 -59 -83 -148v-1009z" />
    <glyph glyph-name="otilde" unicode="&#xf5;" 
d="M596 1798q-26 0 -102 26t-96 26t-44 -11q-23 -10 -40 -32q-17 -21 -21 -25l-45 59q31 35 44 49t43 32q31 18 61 20q30 0 102 -26t120 -26t89 62l51 -66q-64 -88 -162 -88zM915 1335v-1009q0 -141 -121 -240q-122 -98 -288 -98t-289 98t-123 240l-2 1009q0 141 124 239
t290 99q166 0 288 -98q121 -99 121 -240zM227 326q0 -88 83 -148t195 -59q111 0 193 59t82 148v1009q0 87 -82 147t-194 60t-194 -59q-83 -59 -83 -148v-1009z" />
    <glyph glyph-name="odieresis" unicode="&#xf6;" 
d="M678 1944v-162h-115v162h115zM446 1944v-162h-114v162h114zM915 1335v-1009q0 -141 -121 -240q-122 -98 -288 -98t-289 98t-123 240l-2 1009q0 141 124 239t290 99q166 0 288 -98q121 -99 121 -240zM227 326q0 -88 83 -148t195 -59q111 0 193 59t82 148v1009
q0 87 -82 147t-194 60t-194 -59q-83 -59 -83 -148v-1009z" />
    <glyph glyph-name="divide" unicode="&#xf7;" horiz-adv-x="831" 
d="M483 1235v-209h-155v209h155zM483 600v-209h-155v209h155zM711 752h-596v116h596v-116z" />
    <glyph glyph-name="oslash" unicode="&#xf8;" 
d="M504 1542q-111 0 -194 -59t-83 -148v-925l469 1030q-8 42 -67 72t-125 30zM522 119q94 0 176 59t82 148v1003l-487 -1075q15 -59 75 -97t154 -38zM915 1335v-1009q0 -141 -121 -240q-122 -98 -295 -98t-298 110l-58 -125h-116l100 217q-33 63 -35 136v1009q0 141 124 239
t286 99q162 0 280 -90l54 115h118l-92 -197q53 -80 53 -166z" />
    <glyph glyph-name="ugrave" unicode="&#xf9;" horiz-adv-x="956" 
d="M205 2054h201l129 -291h-140zM473 125q94 1 166 65t72 150v1333h137v-1333q0 -142 -111 -246t-263 -104t-262 102q-108 102 -108 248l-2 1333h136v-1333q0 -86 70 -151q71 -64 165 -64z" />
    <glyph glyph-name="uacute" unicode="&#xfa;" horiz-adv-x="956" 
d="M524 2052h201l-190 -291h-140zM473 125q94 1 166 65t72 150v1333h137v-1333q0 -142 -111 -246t-263 -104t-262 102q-108 102 -108 248l-2 1333h136v-1333q0 -86 70 -151q71 -64 165 -64z" />
    <glyph glyph-name="ucircumflex" unicode="&#xfb;" horiz-adv-x="956" 
d="M535 1964l161 -203h-102l-115 127l-117 -127h-108l172 203h109zM473 125q94 1 166 65t72 150v1333h137v-1333q0 -142 -111 -246t-263 -104t-262 102q-108 102 -108 248l-2 1333h136v-1333q0 -86 70 -151q71 -64 165 -64z" />
    <glyph glyph-name="udieresis" unicode="&#xfc;" horiz-adv-x="956" 
d="M649 1944v-162h-114v162h114zM418 1944v-162h-115v162h115zM473 125q94 1 166 65t72 150v1333h137v-1333q0 -142 -111 -246t-263 -104t-262 102q-108 102 -108 248l-2 1333h136v-1333q0 -86 70 -151q71 -64 165 -64z" />
    <glyph glyph-name="yacute" unicode="&#xfd;" horiz-adv-x="1036" 
d="M567 2052h201l-190 -291h-140zM582 0h-136v807q-59 125 -200 425t-209 441h153l326 -680l326 680h153l-413 -866v-807z" />
    <glyph glyph-name="thorn" unicode="&#xfe;" horiz-adv-x="845" 
d="M471 322h-219v-322h-135l-2 1673h137v-389h219q145 0 251 -105t105 -251v-252q0 -147 -104 -251q-105 -103 -252 -103zM471 1147h-219v-688h219q88 0 154 63t65 154v252q0 88 -66 154t-153 65z" />
    <glyph glyph-name="ydieresis" unicode="&#xff;" horiz-adv-x="1036" 
d="M688 1946v-162h-115v162h115zM457 1946v-162h-115v162h115zM582 0h-136v807q-59 125 -200 425t-209 441h153l326 -680l326 680h153l-413 -866v-807z" />
    <glyph glyph-name="Lslash" unicode="&#x141;" horiz-adv-x="698" 
d="M647 135v-135h-545l-2 801l-135 -49v116l135 50v755h136v-706l266 94v-117l-266 -94v-715h411z" />
    <glyph glyph-name="lslash" unicode="&#x142;" horiz-adv-x="698" 
d="M647 135v-135h-545l-2 801l-135 -49v116l135 50v755h136v-706l266 94v-117l-266 -94v-715h411z" />
    <glyph glyph-name="OE" unicode="&#x152;" horiz-adv-x="1468" 
d="M242 338q0 -88 82 -148t182 -59q100 0 164 59q63 59 63 148v1003q-2 86 -66 144q-65 57 -163 57t-180 -59t-82 -148v-997zM733 1673h643v-135h-508v-668h453v-114h-453v-621h508v-135h-643v49q-94 -49 -215 -49q-164 0 -287 98t-125 240v997q0 141 124 239t288 99
q119 0 215 -51v51z" />
    <glyph glyph-name="oe" unicode="&#x153;" horiz-adv-x="1468" 
d="M242 338q0 -88 82 -148t182 -59q100 0 164 59q63 59 63 148v1003q-2 86 -66 144q-65 57 -163 57t-180 -59t-82 -148v-997zM733 1673h643v-135h-508v-668h453v-135h-453v-600h508v-135h-643v49q-94 -49 -215 -49q-164 0 -287 98t-125 240v997q0 141 124 239t288 99
q119 0 215 -51v51z" />
    <glyph glyph-name="Scaron" unicode="&#x160;" horiz-adv-x="923" 
d="M680 1964l-162 -203h-108l-172 203h108l117 -127l115 127h102zM221 1317v-246q0 -80 72 -131t197 -59q126 -8 236 -89t110 -204v-240q0 -148 -111 -252t-265 -104t-264 104t-110 252l-2 162h135v-162q0 -88 73 -154t171 -67q98 0 167 66t68 155v240q0 72 -71 119
q-72 47 -170 47q-153 0 -263 91t-110 226v246q0 147 111 251t267 105q156 0 264 -104q110 -104 110 -252v-168h-136v168q0 92 -71 157q-72 64 -170 64t-168 -66t-70 -155z" />
    <glyph glyph-name="scaron" unicode="&#x161;" horiz-adv-x="935" 
d="M686 1964l-162 -203h-108l-172 203h108l117 -127l115 127h102zM221 1317v-246q0 -80 72 -131t197 -59q126 -8 236 -89t110 -204v-240q0 -148 -111 -252t-265 -104t-264 104t-110 252l-2 162h135v-162q0 -88 73 -154t171 -67q98 0 167 66t68 155v240q0 72 -71 119
q-72 47 -170 47q-153 0 -263 91t-110 226v246q0 147 111 251t267 105q156 0 264 -104q110 -104 110 -252v-168h-136v168q0 92 -71 157q-72 64 -170 64t-168 -66t-70 -155z" />
    <glyph glyph-name="Ydieresis" unicode="&#x178;" horiz-adv-x="1036" 
d="M688 1946v-162h-115v162h115zM457 1946v-162h-115v162h115zM582 0h-136v807q-59 125 -200 425t-209 441h153l326 -680l326 680h153l-413 -866v-807z" />
    <glyph glyph-name="Zcaron" unicode="&#x17d;" horiz-adv-x="1019" 
d="M729 1964l-162 -203h-108l-172 203h108l117 -127l115 127h102zM932 135v-135h-807v158l629 1380h-672v135h829v-157l-635 -1381h656z" />
    <glyph glyph-name="zcaron" unicode="&#x17e;" horiz-adv-x="1019" 
d="M729 1964l-162 -203h-108l-172 203h108l117 -127l115 127h102zM932 135v-135h-807v158l629 1380h-672v135h829v-157l-635 -1381h656z" />
    <glyph glyph-name="circumflex" unicode="&#x2c6;" horiz-adv-x="561" 
d="M338 1673l162 -203h-103l-114 127l-117 -127h-109l172 203h109z" />
    <glyph glyph-name="caron" unicode="&#x2c7;" horiz-adv-x="561" 
d="M500 1673l-162 -203h-109l-172 203h109l117 -127l114 127h103z" />
    <glyph glyph-name="breve" unicode="&#x2d8;" horiz-adv-x="428" 
d="M25 1673h77q0 -51 33 -86t77 -35t77 35t33 86h77q0 -84 -54 -141t-134 -57t-133 54t-53 144z" />
    <glyph glyph-name="dotaccent" unicode="&#x2d9;" horiz-adv-x="393" 
d="M268 1673v-209h-155v209h155z" />
    <glyph glyph-name="ring" unicode="&#x2da;" horiz-adv-x="436" 
d="M215 1608q-37 0 -63 -27t-27 -63q0 -36 27 -64q28 -27 64 -27t63 27q26 27 28 64q-3 38 -29 64t-63 26zM214 1362q-67 0 -111 44t-44 111t45 111q46 44 110 45q64 -1 110 -45t47 -110q0 -66 -45 -111t-112 -45z" />
    <glyph glyph-name="ogonek" unicode="&#x2db;" horiz-adv-x="315" 
d="M176 -514h-164l193 311h88z" />
    <glyph glyph-name="tilde" unicode="&#x2dc;" horiz-adv-x="690" 
d="M434 1495q-26 0 -102 26q-76 25 -96 25q-49 -1 -88 -47q-13 -16 -17 -20l-45 59q31 35 44 49q13 15 43 33q29 18 61 18t102 -26t119 -25q49 0 90 62l51 -66q-64 -88 -162 -88z" />
    <glyph glyph-name="hungarumlaut" unicode="&#x2dd;" horiz-adv-x="624" 
d="M432 1434h-96l84 188h135zM182 1434h-94l82 188h135z" />
    <glyph glyph-name="endash" unicode="&#x2013;" horiz-adv-x="964" 
d="M866 752h-774v116h774v-116z" />
    <glyph glyph-name="emdash" unicode="&#x2014;" horiz-adv-x="1210" 
d="M1090 752h-975v116h975v-116z" />
    <glyph glyph-name="quoteleft" unicode="&#x2018;" horiz-adv-x="436" 
d="M305 1538v-233h-176v233l66 135h75l-65 -135h100z" />
    <glyph glyph-name="quoteright" unicode="&#x2019;" horiz-adv-x="436" 
d="M129 1440v233h176v-233l-65 -135h-76l65 135h-100z" />
    <glyph glyph-name="quotesinglbase" unicode="&#x201a;" horiz-adv-x="430" 
d="M129 0v233h176v-233l-65 -115h-76l65 115h-100z" />
    <glyph glyph-name="quotedblleft" unicode="&#x201c;" horiz-adv-x="714" 
d="M303 1538v-233h-176v233l66 135h75l-65 -135h100zM584 1538v-233h-176v233l65 135h76l-66 -135h101z" />
    <glyph glyph-name="quotedblright" unicode="&#x201d;" horiz-adv-x="714" 
d="M408 1440v233h176v-233l-66 -135h-76l66 135h-100zM127 1440v233h176v-233l-65 -135h-76l65 135h-100z" />
    <glyph glyph-name="quotedblbase" unicode="&#x201e;" horiz-adv-x="714" 
d="M408 0v233h176v-233l-66 -115h-76l66 115h-100zM127 0v233h176v-233l-65 -115h-76l65 115h-100z" />
    <glyph glyph-name="dagger" unicode="&#x2020;" horiz-adv-x="808" 
d="M344 1262h-330v116h330v445h115v-445h329v-116h-329v-1446h-115v1446z" />
    <glyph glyph-name="daggerdbl" unicode="&#x2021;" horiz-adv-x="823" 
d="M352 1262h-329v116h329v445h115v-445h330v-116h-330v-885h330v-117h-330v-444h-115v444h-327v117h327v885z" />
    <glyph glyph-name="bullet" unicode="&#x2022;" horiz-adv-x="532" 
d="M102 806q0 67 48 114t114 47t114 -46t48 -114t-48 -116t-116 -48t-114 48t-46 115z" />
    <glyph glyph-name="ellipsis" unicode="&#x2026;" horiz-adv-x="1179" 
d="M1055 209v-209h-156v209h156zM662 209v-209h-156v209h156zM268 209v-209h-155v209h155z" />
    <glyph glyph-name="perthousand" unicode="&#x2030;" horiz-adv-x="1691" 
d="M1518 156v370q0 37 -31 67t-73 30t-71 -27t-28 -70v-370q1 -43 29 -70t72 -27t73 29t29 68zM1204 526q0 88 62 148t149 59q89 0 151 -60t62 -147v-370q0 -86 -62 -146t-150 -61q-88 0 -149 59q-62 59 -63 148v370zM997 156v370q0 37 -30 67q-31 30 -73 30t-71 -27
t-28 -70v-370q1 -43 29 -70t72 -27t73 29q28 29 28 68zM895 733q89 0 151 -60t62 -147v-370q0 -86 -62 -146t-150 -61q-88 0 -150 59t-62 148v370q0 88 61 148q62 59 150 59zM377 1036v369q0 41 -33 70t-73 29q-41 0 -69 -28t-28 -71v-369q0 -42 29 -70t71 -28t72 28
q31 28 31 70zM487 1036q-1 -88 -63 -148t-149 -59q-87 -1 -150 59t-64 148v369q0 86 65 146q66 61 150 61t148 -60t63 -147v-369zM221 -51l629 1724h119l-629 -1724h-119z" />
    <glyph glyph-name="guilsinglleft" unicode="&#x2039;" horiz-adv-x="518" 
d="M469 389v-184l-426 467v133l426 467v-185l-309 -350q299 -338 309 -348z" />
    <glyph glyph-name="guilsinglright" unicode="&#x203a;" horiz-adv-x="518" 
d="M45 205v184q49 57 307 348l-309 350v185l426 -467v-133z" />
    <glyph glyph-name="fraction" unicode="&#x2044;" horiz-adv-x="1208" 
d="M1180 1698l-1051 -1725h-102l1048 1725h105z" />
    <glyph glyph-name="Euro" unicode="&#x20ac;" horiz-adv-x="1087" 
d="M1004 342q0 -148 -110 -252t-273 -104q-162 0 -287 105t-125 251v254h-131v117h131v192h-131v117h131v295q0 145 125 251t287 105q163 0 273 -104t110 -252v-150h-138v150q0 89 -72 155t-176 66q-102 0 -187 -67t-85 -154v-295h363v-117h-363v-192h363v-117h-363v-254
q0 -88 85 -155t187 -67t176 68q73 66 72 154v141h138v-141z" />
    <glyph glyph-name="trademark" unicode="&#x2122;" horiz-adv-x="1343" 
d="M694 668h-76v1005h87l229 -903l231 903h74v-1005h-80v694l-172 -694h-104l-189 694v-694zM356 1595v-927h-77v927h-181v78h437v-78h-179z" />
    <glyph glyph-name="minus" unicode="&#x2212;" horiz-adv-x="831" 
d="M711 752h-596v116h596v-116z" />
    </font>
</defs>
</svg>
